<?xml version="1.0" encoding="UTF-8" standalone="no"?>
<!DOCTYPE svg PUBLIC "-//W3C//DTD SVG 1.1//EN"
 "http://www.w3.org/Graphics/SVG/1.1/DTD/svg11.dtd">
<!-- Generated by graphviz version 2.43.0 (0)
 -->
<!-- Title: GitImplementation Pages: 1 -->
<svg width="1161pt" height="1004pt"
 viewBox="0.00 0.00 1160.50 1004.00" xmlns="http://www.w3.org/2000/svg" xmlns:xlink="http://www.w3.org/1999/xlink">
<g id="graph0" class="graph" transform="scale(1 1) rotate(0) translate(4 1000)">
<title>GitImplementation</title>
<polygon fill="white" stroke="transparent" points="-4,4 -4,-1000 1156.5,-1000 1156.5,4 -4,4"/>
<g id="clust1" class="cluster">
<title>cluster_libs</title>
<polygon fill="none" stroke="grey" stroke-dasharray="5,2" points="530.5,-32.13 530.5,-124.87 1144.5,-124.87 1144.5,-32.13 530.5,-32.13"/>
<text text-anchor="middle" x="837.5" y="-109.67" font-family="Times,serif" font-size="14.00">External Libraries</text>
</g>
<!-- Main -->
<g id="node1" class="node">
<title>Main</title>
<polygon fill="#d5d8dc" stroke="black" points="719.5,-737.5 719.5,-995.5 941.5,-995.5 941.5,-737.5 719.5,-737.5"/>
<polygon fill="#2c3e50" stroke="transparent" points="727.5,-966.5 727.5,-991.5 933.5,-991.5 933.5,-966.5 727.5,-966.5"/>
<polygon fill="none" stroke="black" points="727.5,-966.5 727.5,-991.5 933.5,-991.5 933.5,-966.5 727.5,-966.5"/>
<text text-anchor="start" x="746.5" y="-976.3" font-family="Helvetica,sans-Serif" font-weight="bold" font-size="14.00" fill="white">Program Entry (main.cpp)</text>
<polygon fill="none" stroke="black" points="727.5,-941.5 727.5,-966.5 933.5,-966.5 933.5,-941.5 727.5,-941.5"/>
<text text-anchor="start" x="732.5" y="-951.3" font-family="Helvetica,sans-Serif" font-style="italic" font-size="14.00">+ main(argc: int, argv: char[]): int</text>
<polygon fill="#bdc3c7" stroke="transparent" points="727.5,-916.5 727.5,-941.5 933.5,-941.5 933.5,-916.5 727.5,-916.5"/>
<polygon fill="none" stroke="black" points="727.5,-916.5 727.5,-941.5 933.5,-941.5 933.5,-916.5 727.5,-916.5"/>
<text text-anchor="start" x="748" y="-926.3" font-family="Helvetica,sans-Serif" font-weight="bold" font-size="14.00">Command Handling logic</text>
<polygon fill="none" stroke="black" points="727.5,-891.5 727.5,-916.5 933.5,-916.5 933.5,-891.5 727.5,-891.5"/>
<text text-anchor="start" x="732.5" y="-900.3" font-family="Helvetica,sans-Serif" font-size="14.00">Handle: &quot;init&quot;</text>
<polygon fill="none" stroke="black" points="727.5,-866.5 727.5,-891.5 933.5,-891.5 933.5,-866.5 727.5,-866.5"/>
<text text-anchor="start" x="732.5" y="-875.3" font-family="Helvetica,sans-Serif" font-size="14.00">Handle: &quot;cat&#45;file&quot;</text>
<polygon fill="none" stroke="black" points="727.5,-841.5 727.5,-866.5 933.5,-866.5 933.5,-841.5 727.5,-841.5"/>
<text text-anchor="start" x="732.5" y="-850.3" font-family="Helvetica,sans-Serif" font-size="14.00">Handle: &quot;hash&#45;object&quot;</text>
<polygon fill="none" stroke="black" points="727.5,-816.5 727.5,-841.5 933.5,-841.5 933.5,-816.5 727.5,-816.5"/>
<text text-anchor="start" x="732.5" y="-825.3" font-family="Helvetica,sans-Serif" font-size="14.00">Handle: &quot;ls&#45;tree&quot;</text>
<polygon fill="none" stroke="black" points="727.5,-791.5 727.5,-816.5 933.5,-816.5 933.5,-791.5 727.5,-791.5"/>
<text text-anchor="start" x="732.5" y="-800.3" font-family="Helvetica,sans-Serif" font-size="14.00">Handle: &quot;write&#45;tree&quot;</text>
<polygon fill="none" stroke="black" points="727.5,-766.5 727.5,-791.5 933.5,-791.5 933.5,-766.5 727.5,-766.5"/>
<text text-anchor="start" x="732.5" y="-775.3" font-family="Helvetica,sans-Serif" font-size="14.00">Handle: &quot;commit&#45;tree&quot;</text>
<polygon fill="none" stroke="black" points="727.5,-741.5 727.5,-766.5 933.5,-766.5 933.5,-741.5 727.5,-741.5"/>
<text text-anchor="start" x="732.5" y="-750.3" font-family="Helvetica,sans-Serif" font-size="14.00">Handle: &quot;clone&quot;</text>
</g>
<!-- GitUtils -->
<g id="node5" class="node">
<title>GitUtils</title>
<polygon fill="#eef2f5" stroke="black" points="471.5,-181.5 471.5,-689.5 841.5,-689.5 841.5,-181.5 471.5,-181.5"/>
<polygon fill="#2980b9" stroke="transparent" points="479.5,-660.5 479.5,-685.5 833.5,-685.5 833.5,-660.5 479.5,-660.5"/>
<polygon fill="none" stroke="black" points="479.5,-660.5 479.5,-685.5 833.5,-685.5 833.5,-660.5 479.5,-660.5"/>
<text text-anchor="start" x="574" y="-670.3" font-family="Helvetica,sans-Serif" font-weight="bold" font-size="14.00" fill="white">«static» GitUtils (util.hpp)</text>
<polygon fill="#aed6f1" stroke="transparent" points="479.5,-635.5 479.5,-660.5 833.5,-660.5 833.5,-635.5 479.5,-635.5"/>
<polygon fill="none" stroke="black" points="479.5,-635.5 479.5,-660.5 833.5,-660.5 833.5,-635.5 479.5,-635.5"/>
<text text-anchor="start" x="577.5" y="-645.3" font-family="Helvetica,sans-Serif" font-weight="bold" font-size="14.00">Compression &amp; Hashing</text>
<polygon fill="none" stroke="black" points="479.5,-610.5 479.5,-635.5 833.5,-635.5 833.5,-610.5 479.5,-610.5"/>
<text text-anchor="start" x="484.5" y="-619.3" font-family="Helvetica,sans-Serif" font-size="14.00">+ compressZlib(data: string): vector&lt;char&gt;</text>
<polygon fill="none" stroke="black" points="479.5,-585.5 479.5,-610.5 833.5,-610.5 833.5,-585.5 479.5,-585.5"/>
<text text-anchor="start" x="484.5" y="-594.3" font-family="Helvetica,sans-Serif" font-size="14.00">+ decompressZlib(data: vector&lt;char&gt;): string</text>
<polygon fill="none" stroke="black" points="479.5,-560.5 479.5,-585.5 833.5,-585.5 833.5,-560.5 479.5,-560.5"/>
<text text-anchor="start" x="484.5" y="-569.3" font-family="Helvetica,sans-Serif" font-size="14.00">+ computeSHA1(data: string): string</text>
<polygon fill="#aed6f1" stroke="transparent" points="479.5,-535.5 479.5,-560.5 833.5,-560.5 833.5,-535.5 479.5,-535.5"/>
<polygon fill="none" stroke="black" points="479.5,-535.5 479.5,-560.5 833.5,-560.5 833.5,-535.5 479.5,-535.5"/>
<text text-anchor="start" x="623.5" y="-545.3" font-family="Helvetica,sans-Serif" font-weight="bold" font-size="14.00">Object I/O</text>
<polygon fill="none" stroke="black" points="479.5,-510.5 479.5,-535.5 833.5,-535.5 833.5,-510.5 479.5,-510.5"/>
<text text-anchor="start" x="484.5" y="-519.3" font-family="Helvetica,sans-Serif" font-size="14.00">+ readGitObject(hash: string): string</text>
<polygon fill="none" stroke="black" points="479.5,-485.5 479.5,-510.5 833.5,-510.5 833.5,-485.5 479.5,-485.5"/>
<text text-anchor="start" x="484.5" y="-494.3" font-family="Helvetica,sans-Serif" font-size="14.00">+ writeGitObject(content: string): string</text>
<polygon fill="none" stroke="black" points="479.5,-460.5 479.5,-485.5 833.5,-485.5 833.5,-460.5 479.5,-460.5"/>
<text text-anchor="start" x="484.5" y="-469.3" font-family="Helvetica,sans-Serif" font-size="14.00">+ parseTreeObject(data: string): vector&lt;TreeEntry&gt;</text>
<polygon fill="none" stroke="black" points="479.5,-435.5 479.5,-460.5 833.5,-460.5 833.5,-435.5 479.5,-435.5"/>
<text text-anchor="start" x="484.5" y="-444.3" font-family="Helvetica,sans-Serif" font-size="14.00">+ writeTreeObject(entries: vector&lt;TreeEntry&gt;): string</text>
<polygon fill="none" stroke="black" points="479.5,-410.5 479.5,-435.5 833.5,-435.5 833.5,-410.5 479.5,-410.5"/>
<text text-anchor="start" x="484.5" y="-419.3" font-family="Helvetica,sans-Serif" font-size="14.00">+ createTreeFromDirectory(path: string): string</text>
<polygon fill="none" stroke="black" points="479.5,-385.5 479.5,-410.5 833.5,-410.5 833.5,-385.5 479.5,-385.5"/>
<text text-anchor="start" x="484.5" y="-394.3" font-family="Helvetica,sans-Serif" font-size="14.00">+ writeCommitObject(treeHash, parentHash, msg): string</text>
<polygon fill="#aed6f1" stroke="transparent" points="479.5,-360.5 479.5,-385.5 833.5,-385.5 833.5,-360.5 479.5,-360.5"/>
<polygon fill="none" stroke="black" points="479.5,-360.5 479.5,-385.5 833.5,-385.5 833.5,-360.5 479.5,-360.5"/>
<text text-anchor="start" x="595.5" y="-370.3" font-family="Helvetica,sans-Serif" font-weight="bold" font-size="14.00">Network &amp; Cloning</text>
<polygon fill="none" stroke="black" points="479.5,-335.5 479.5,-360.5 833.5,-360.5 833.5,-335.5 479.5,-335.5"/>
<text text-anchor="start" x="484.5" y="-344.3" font-family="Helvetica,sans-Serif" font-size="14.00">+ makeHTTPRequest(url, method, ...): HTTPResponse</text>
<polygon fill="none" stroke="black" points="479.5,-310.5 479.5,-335.5 833.5,-335.5 833.5,-310.5 479.5,-310.5"/>
<text text-anchor="start" x="484.5" y="-319.3" font-family="Helvetica,sans-Serif" font-size="14.00">+ cloneRepository(url, targetDir): void</text>
<polygon fill="none" stroke="black" points="479.5,-285.5 479.5,-310.5 833.5,-310.5 833.5,-285.5 479.5,-285.5"/>
<text text-anchor="start" x="484.5" y="-294.3" font-family="Helvetica,sans-Serif" font-size="14.00">&#45; parsePackfile(packData: string): vector&lt;PackObject&gt;</text>
<polygon fill="none" stroke="black" points="479.5,-260.5 479.5,-285.5 833.5,-285.5 833.5,-260.5 479.5,-260.5"/>
<text text-anchor="start" x="484.5" y="-269.3" font-family="Helvetica,sans-Serif" font-size="14.00">&#45; extractPackfileFromResponse(res: string): string</text>
<polygon fill="#aed6f1" stroke="transparent" points="479.5,-235.5 479.5,-260.5 833.5,-260.5 833.5,-235.5 479.5,-235.5"/>
<polygon fill="none" stroke="black" points="479.5,-235.5 479.5,-260.5 833.5,-260.5 833.5,-235.5 479.5,-235.5"/>
<text text-anchor="start" x="604" y="-245.3" font-family="Helvetica,sans-Serif" font-weight="bold" font-size="14.00">CURL Callbacks</text>
<polygon fill="none" stroke="black" points="479.5,-210.5 479.5,-235.5 833.5,-235.5 833.5,-210.5 479.5,-210.5"/>
<text text-anchor="start" x="484.5" y="-219.3" font-family="Helvetica,sans-Serif" font-size="14.00">+ WriteCallback(...): size_t</text>
<polygon fill="none" stroke="black" points="479.5,-185.5 479.5,-210.5 833.5,-210.5 833.5,-185.5 479.5,-185.5"/>
<text text-anchor="start" x="484.5" y="-194.3" font-family="Helvetica,sans-Serif" font-size="14.00">+ HeaderCallback(...): size_t</text>
</g>
<!-- Main&#45;&gt;GitUtils -->
<g id="edge1" class="edge">
<title>Main&#45;&gt;GitUtils</title>
<path fill="none" stroke="black" stroke-width="2" d="M778.53,-737.37C773.53,-725.05 768.35,-712.27 763.07,-699.25"/>
<polygon fill="black" stroke="black" stroke-width="2" points="766.21,-697.68 759.21,-689.73 759.72,-700.31 766.21,-697.68"/>
<text text-anchor="middle" x="795.5" y="-711" font-family="Helvetica,sans-Serif" font-size="10.00">delegates to</text>
</g>
<!-- Filesystem -->
<g id="node9" class="node">
<title>Filesystem</title>
<ellipse fill="#f2f3f4" stroke="black" cx="1063.5" cy="-67" rx="72.66" ry="26.74"/>
<text text-anchor="middle" x="1063.5" y="-70.8" font-family="Helvetica,sans-Serif" font-size="14.00">std::filesystem</text>
<text text-anchor="middle" x="1063.5" y="-55.8" font-family="Helvetica,sans-Serif" font-size="14.00">(File I/O)</text>
</g>
<!-- Main&#45;&gt;Filesystem -->
<g id="edge8" class="edge">
<title>Main&#45;&gt;Filesystem</title>
<path fill="none" stroke="black" stroke-dasharray="5,2" d="M941.51,-750.76C955.5,-731.61 968.16,-711.07 977.5,-690 1069.26,-483.03 1068.74,-202.51 1065.27,-103.99"/>
<polygon fill="black" stroke="black" points="1068.77,-103.82 1064.89,-93.96 1061.77,-104.08 1068.77,-103.82"/>
</g>
<!-- TreeEntry -->
<g id="node2" class="node">
<title>TreeEntry</title>
<polygon fill="#eef2f5" stroke="black" points="0,-13 0,-121 145,-121 145,-13 0,-13"/>
<polygon fill="#8e44ad" stroke="transparent" points="8.5,-92 8.5,-117 137.5,-117 137.5,-92 8.5,-92"/>
<polygon fill="none" stroke="black" points="8.5,-92 8.5,-117 137.5,-117 137.5,-92 8.5,-92"/>
<text text-anchor="start" x="13.5" y="-101.8" font-family="Helvetica,sans-Serif" font-weight="bold" font-size="14.00" fill="white">«struct» TreeEntry</text>
<polygon fill="none" stroke="black" points="8.5,-67 8.5,-92 137.5,-92 137.5,-67 8.5,-67"/>
<text text-anchor="start" x="13.5" y="-75.8" font-family="Helvetica,sans-Serif" font-size="14.00">+ mode: string</text>
<polygon fill="none" stroke="black" points="8.5,-42 8.5,-67 137.5,-67 137.5,-42 8.5,-42"/>
<text text-anchor="start" x="13.5" y="-50.8" font-family="Helvetica,sans-Serif" font-size="14.00">+ name: string</text>
<polygon fill="none" stroke="black" points="8.5,-17 8.5,-42 137.5,-42 137.5,-17 8.5,-17"/>
<text text-anchor="start" x="13.5" y="-25.8" font-family="Helvetica,sans-Serif" font-size="14.00">+ hash: string (hex)</text>
</g>
<!-- PackObject -->
<g id="node3" class="node">
<title>PackObject</title>
<polygon fill="#eef2f5" stroke="black" points="163,-0.5 163,-133.5 320,-133.5 320,-0.5 163,-0.5"/>
<polygon fill="#8e44ad" stroke="transparent" points="171.5,-104 171.5,-129 312.5,-129 312.5,-104 171.5,-104"/>
<polygon fill="none" stroke="black" points="171.5,-104 171.5,-129 312.5,-129 312.5,-104 171.5,-104"/>
<text text-anchor="start" x="176.5" y="-113.8" font-family="Helvetica,sans-Serif" font-weight="bold" font-size="14.00" fill="white">«struct» PackObject</text>
<polygon fill="none" stroke="black" points="171.5,-79 171.5,-104 312.5,-104 312.5,-79 171.5,-79"/>
<text text-anchor="start" x="176.5" y="-87.8" font-family="Helvetica,sans-Serif" font-size="14.00">+ hash: string</text>
<polygon fill="none" stroke="black" points="171.5,-54 171.5,-79 312.5,-79 312.5,-54 171.5,-54"/>
<text text-anchor="start" x="176.5" y="-62.8" font-family="Helvetica,sans-Serif" font-size="14.00">+ data: string</text>
<polygon fill="none" stroke="black" points="171.5,-29 171.5,-54 312.5,-54 312.5,-29 171.5,-29"/>
<text text-anchor="start" x="176.5" y="-37.8" font-family="Helvetica,sans-Serif" font-size="14.00">+ type: int</text>
<polygon fill="none" stroke="black" points="171.5,-4 171.5,-29 312.5,-29 312.5,-4 171.5,-4"/>
<text text-anchor="start" x="176.5" y="-12.8" font-family="Helvetica,sans-Serif" font-size="14.00">+ size: size_t</text>
</g>
<!-- HTTPResponse -->
<g id="node4" class="node">
<title>HTTPResponse</title>
<polygon fill="#eef2f5" stroke="black" points="338,-25.5 338,-108.5 521,-108.5 521,-25.5 338,-25.5"/>
<polygon fill="#8e44ad" stroke="transparent" points="346.5,-79 346.5,-104 513.5,-104 513.5,-79 346.5,-79"/>
<polygon fill="none" stroke="black" points="346.5,-79 346.5,-104 513.5,-104 513.5,-79 346.5,-79"/>
<text text-anchor="start" x="351.5" y="-88.8" font-family="Helvetica,sans-Serif" font-weight="bold" font-size="14.00" fill="white">«struct» HTTPResponse</text>
<polygon fill="none" stroke="black" points="346.5,-54 346.5,-79 513.5,-79 513.5,-54 346.5,-54"/>
<text text-anchor="start" x="351.5" y="-62.8" font-family="Helvetica,sans-Serif" font-size="14.00">+ body: string</text>
<polygon fill="none" stroke="black" points="346.5,-29 346.5,-54 513.5,-54 513.5,-29 346.5,-29"/>
<text text-anchor="start" x="351.5" y="-37.8" font-family="Helvetica,sans-Serif" font-size="14.00">+ status_code: int</text>
</g>
<!-- GitUtils&#45;&gt;TreeEntry -->
<g id="edge2" class="edge">
<title>GitUtils&#45;&gt;TreeEntry</title>
<path fill="none" stroke="black" d="M471.47,-332.56C374.63,-277.09 255.35,-205.35 153.5,-134 150.87,-132.16 148.23,-130.26 145.57,-128.32"/>
<polygon fill="black" stroke="black" points="145.55,-128.31 138.35,-127.92 135.94,-121.12 143.14,-121.51 145.55,-128.31"/>
<text text-anchor="middle" x="226" y="-155" font-family="Helvetica,sans-Serif" font-size="10.00">creates/parses</text>
</g>
<!-- GitUtils&#45;&gt;PackObject -->
<g id="edge4" class="edge">
<title>GitUtils&#45;&gt;PackObject</title>
<path fill="none" stroke="black" d="M471.45,-271.08C419.56,-225.25 365.77,-177.75 323.28,-140.22"/>
<polygon fill="black" stroke="black" points="325.56,-137.56 315.75,-133.57 320.92,-142.81 325.56,-137.56"/>
<text text-anchor="middle" x="359" y="-155" font-family="Helvetica,sans-Serif" font-size="10.00">creates</text>
</g>
<!-- GitUtils&#45;&gt;HTTPResponse -->
<g id="edge3" class="edge">
<title>GitUtils&#45;&gt;HTTPResponse</title>
<path fill="none" stroke="black" d="M499.77,-181.45C484.91,-157.46 471.21,-135.35 459.93,-117.14"/>
<polygon fill="black" stroke="black" points="462.84,-115.18 454.6,-108.52 456.89,-118.86 462.84,-115.18"/>
<text text-anchor="middle" x="500" y="-155" font-family="Helvetica,sans-Serif" font-size="10.00">returns</text>
</g>
<!-- GitUtils&#45;&gt;GitUtils -->
<g id="edge10" class="edge">
<title>GitUtils&#45;&gt;GitUtils</title>
<path fill="none" stroke="blue" d="M841.61,-471.59C852.79,-463 859.5,-450.97 859.5,-435.5 859.5,-423.89 855.73,-414.23 849.12,-406.5"/>
<polygon fill="blue" stroke="blue" points="851.29,-403.73 841.61,-399.41 846.49,-408.82 851.29,-403.73"/>
<text text-anchor="middle" x="914" y="-438.5" font-family="Helvetica,sans-Serif" font-size="10.00" fill="blue">createTreeFromDirectory</text>
<text text-anchor="middle" x="914" y="-427.5" font-family="Helvetica,sans-Serif" font-size="10.00" fill="blue">recurses</text>
</g>
<!-- ZLib -->
<g id="node6" class="node">
<title>ZLib</title>
<ellipse fill="#f2f3f4" stroke="black" cx="613.5" cy="-67" rx="74.91" ry="26.74"/>
<text text-anchor="middle" x="613.5" y="-70.8" font-family="Helvetica,sans-Serif" font-size="14.00">zlib.h</text>
<text text-anchor="middle" x="613.5" y="-55.8" font-family="Helvetica,sans-Serif" font-size="14.00">(inflate/deflate)</text>
</g>
<!-- GitUtils&#45;&gt;ZLib -->
<g id="edge5" class="edge">
<title>GitUtils&#45;&gt;ZLib</title>
<path fill="none" stroke="black" stroke-dasharray="5,2" d="M626.81,-181.45C623.3,-151.51 620.13,-124.48 617.76,-104.33"/>
<polygon fill="black" stroke="black" points="621.21,-103.67 616.57,-94.15 614.26,-104.49 621.21,-103.67"/>
</g>
<!-- OpenSSL -->
<g id="node7" class="node">
<title>OpenSSL</title>
<ellipse fill="#f2f3f4" stroke="black" cx="777.5" cy="-67" rx="70.92" ry="26.74"/>
<text text-anchor="middle" x="777.5" y="-70.8" font-family="Helvetica,sans-Serif" font-size="14.00">openssl/sha.h</text>
<text text-anchor="middle" x="777.5" y="-55.8" font-family="Helvetica,sans-Serif" font-size="14.00">(SHA1)</text>
</g>
<!-- GitUtils&#45;&gt;OpenSSL -->
<g id="edge6" class="edge">
<title>GitUtils&#45;&gt;OpenSSL</title>
<path fill="none" stroke="black" stroke-dasharray="5,2" d="M740.04,-181.45C750.09,-151.02 759.14,-123.6 765.83,-103.35"/>
<polygon fill="black" stroke="black" points="769.2,-104.31 769.01,-93.72 762.55,-102.12 769.2,-104.31"/>
</g>
<!-- Curl -->
<g id="node8" class="node">
<title>Curl</title>
<ellipse fill="#f2f3f4" stroke="black" cx="919.5" cy="-67" rx="53.07" ry="26.74"/>
<text text-anchor="middle" x="919.5" y="-70.8" font-family="Helvetica,sans-Serif" font-size="14.00">curl/curl.h</text>
<text text-anchor="middle" x="919.5" y="-55.8" font-family="Helvetica,sans-Serif" font-size="14.00">(Network)</text>
</g>
<!-- GitUtils&#45;&gt;Curl -->
<g id="edge7" class="edge">
<title>GitUtils&#45;&gt;Curl</title>
<path fill="none" stroke="black" stroke-dasharray="5,2" d="M838.09,-181.45C860.89,-149.67 881.33,-121.19 896.03,-100.71"/>
<polygon fill="black" stroke="black" points="898.98,-102.6 901.96,-92.44 893.29,-98.52 898.98,-102.6"/>
</g>
<!-- GitUtils&#45;&gt;Filesystem -->
<g id="edge9" class="edge">
<title>GitUtils&#45;&gt;Filesystem</title>
<path fill="none" stroke="black" stroke-dasharray="5,2" d="M841.54,-267.87C912.91,-203.61 987.32,-136.6 1029.3,-98.8"/>
<polygon fill="black" stroke="black" points="1031.66,-101.38 1036.75,-92.09 1026.98,-96.18 1031.66,-101.38"/>
</g>
</g>
</svg>
