<?xml version="1.0" encoding="UTF-8" standalone="no"?>
<!DOCTYPE svg PUBLIC "-//W3C//DTD SVG 1.1//EN"
 "http://www.w3.org/Graphics/SVG/1.1/DTD/svg11.dtd">
<!-- Generated by graphviz version 2.43.0 (0)
 -->
<!-- Title: GitComponent Pages: 1 -->
<svg width="822pt" height="473pt"
 viewBox="0.00 0.00 822.00 473.00" xmlns="http://www.w3.org/2000/svg" xmlns:xlink="http://www.w3.org/1999/xlink">
<g id="graph0" class="graph" transform="scale(1 1) rotate(0) translate(4 469)">
<title>GitComponent</title>
<polygon fill="white" stroke="transparent" points="-4,4 -4,-469 818,-469 818,4 -4,4"/>
<g id="clust1" class="cluster">
<title>cluster_application</title>
<path fill="#ebf5fb" stroke="black" d="M320,-234C320,-234 432,-234 432,-234 438,-234 444,-240 444,-246 444,-246 444,-445 444,-445 444,-451 438,-457 432,-457 432,-457 320,-457 320,-457 314,-457 308,-451 308,-445 308,-445 308,-246 308,-246 308,-240 314,-234 320,-234"/>
<text text-anchor="middle" x="376" y="-441.8" font-family="Times,serif" font-size="14.00">«subsystem»</text>
<text text-anchor="middle" x="376" y="-426.8" font-family="Times,serif" font-size="14.00">Git Application</text>
</g>
<g id="clust2" class="cluster">
<title>cluster_storage</title>
<polygon fill="#fdf2e9" stroke="black" points="8,-8 8,-194 258,-194 258,-8 8,-8"/>
<text text-anchor="middle" x="133" y="-178.8" font-family="Times,serif" font-size="14.00">«device»</text>
<text text-anchor="middle" x="133" y="-163.8" font-family="Times,serif" font-size="14.00">Local File System</text>
</g>
<g id="clust3" class="cluster">
<title>cluster_libs</title>
<polygon fill="#eaeded" stroke="black" stroke-dasharray="1,5" points="426,-102 426,-194 790,-194 790,-102 426,-102"/>
<text text-anchor="middle" x="608" y="-178.8" font-family="Times,serif" font-size="14.00">«subsystem»</text>
<text text-anchor="middle" x="608" y="-163.8" font-family="Times,serif" font-size="14.00">External Libraries</text>
</g>
<!-- CLI -->
<g id="node1" class="node">
<title>CLI</title>
<polygon fill="#d6eaf8" stroke="black" points="427.5,-411 318.5,-411 318.5,-407 314.5,-407 314.5,-403 318.5,-403 318.5,-358 314.5,-358 314.5,-354 318.5,-354 318.5,-350 427.5,-350 427.5,-411"/>
<polyline fill="none" stroke="black" points="318.5,-407 322.5,-407 322.5,-403 318.5,-403 "/>
<polyline fill="none" stroke="black" points="318.5,-358 322.5,-358 322.5,-354 318.5,-354 "/>
<text text-anchor="start" x="329" y="-394.3" font-family="Helvetica,sans-Serif" font-weight="bold" font-size="14.00">«component»</text>
<text text-anchor="start" x="346" y="-374.3" font-family="Helvetica,sans-Serif" font-size="14.00">Main CLI</text>
<text text-anchor="start" x="353.5" y="-358.5" font-family="Helvetica,sans-Serif" font-size="10.00">main.cpp</text>
</g>
<!-- Utils -->
<g id="node2" class="node">
<title>Utils</title>
<polygon fill="#aed6f1" stroke="black" points="435.5,-303 316.5,-303 316.5,-299 312.5,-299 312.5,-295 316.5,-295 316.5,-250 312.5,-250 312.5,-246 316.5,-246 316.5,-242 435.5,-242 435.5,-303"/>
<polyline fill="none" stroke="black" points="316.5,-299 320.5,-299 320.5,-295 316.5,-295 "/>
<polyline fill="none" stroke="black" points="316.5,-250 320.5,-250 320.5,-246 316.5,-246 "/>
<text text-anchor="start" x="332" y="-286.3" font-family="Helvetica,sans-Serif" font-weight="bold" font-size="14.00">«component»</text>
<text text-anchor="start" x="327" y="-266.3" font-family="Helvetica,sans-Serif" font-size="14.00">Git Core Utilities</text>
<text text-anchor="start" x="360.5" y="-250.5" font-family="Helvetica,sans-Serif" font-size="10.00">util.hpp</text>
</g>
<!-- CLI&#45;&gt;Utils -->
<g id="edge1" class="edge">
<title>CLI&#45;&gt;Utils</title>
<path fill="none" stroke="black" d="M373.84,-349.97C374.15,-338.7 374.52,-325.64 374.87,-313.55"/>
<polygon fill="black" stroke="black" points="378.37,-313.33 375.16,-303.24 371.38,-313.13 378.37,-313.33"/>
<text text-anchor="middle" x="389.5" y="-324" font-family="Helvetica,sans-Serif" font-size="10.00">«calls»</text>
</g>
<!-- WorkingTree -->
<g id="node3" class="node">
<title>WorkingTree</title>
<polygon fill="#edbb99" stroke="black" points="250,-148 247,-152 226,-152 223,-148 126,-148 126,-110 250,-110 250,-148"/>
<text text-anchor="middle" x="188" y="-132.8" font-family="Helvetica,sans-Serif" font-size="14.00">Working Directory</text>
<text text-anchor="middle" x="188" y="-117.8" font-family="Helvetica,sans-Serif" font-size="14.00">(Source Files)</text>
</g>
<!-- CLI&#45;&gt;WorkingTree -->
<g id="edge7" class="edge">
<title>CLI&#45;&gt;WorkingTree</title>
<path fill="none" stroke="#555555" d="M322.42,-349.91C281.32,-322.84 225.92,-278.71 199,-224 188.96,-203.6 186.56,-177.79 186.48,-158.38"/>
<polygon fill="#555555" stroke="#555555" points="189.98,-158.38 186.63,-148.33 182.98,-158.27 189.98,-158.38"/>
<text text-anchor="middle" x="273.5" y="-270" font-family="Helvetica,sans-Serif" font-size="10.00">scans</text>
</g>
<!-- Utils&#45;&gt;WorkingTree -->
<g id="edge10" class="edge">
<title>Utils&#45;&gt;WorkingTree</title>
<path fill="none" stroke="black" stroke-dasharray="5,2" d="M316.22,-266.96C283.33,-261.49 244.04,-249.6 218,-224 200.42,-206.72 193.13,-179.16 190.11,-158.34"/>
<polygon fill="black" stroke="black" points="193.55,-157.67 188.89,-148.16 186.6,-158.5 193.55,-157.67"/>
<text text-anchor="middle" x="245" y="-216" font-family="Helvetica,sans-Serif" font-size="10.00">creates files</text>
<text text-anchor="middle" x="245" y="-205" font-family="Helvetica,sans-Serif" font-size="10.00">(clone)</text>
</g>
<!-- Objects -->
<g id="node5" class="node">
<title>Objects</title>
<polygon fill="#edbb99" stroke="black" points="124,-57 24,-57 24,-16 130,-16 130,-51 124,-57"/>
<polyline fill="none" stroke="black" points="124,-57 124,-51 "/>
<polyline fill="none" stroke="black" points="130,-51 124,-51 "/>
<text text-anchor="middle" x="77" y="-45" font-family="Helvetica,sans-Serif" font-size="10.00">«artifact»</text>
<text text-anchor="middle" x="77" y="-34" font-family="Helvetica,sans-Serif" font-size="10.00">/objects</text>
<text text-anchor="middle" x="77" y="-23" font-family="Helvetica,sans-Serif" font-size="10.00">(Compressed Blobs)</text>
</g>
<!-- Utils&#45;&gt;Objects -->
<g id="edge8" class="edge">
<title>Utils&#45;&gt;Objects</title>
<path fill="none" stroke="#d35400" d="M331.71,-241.78C315.31,-228.81 297.84,-212.37 286,-194 262.91,-158.19 288.29,-132.95 259,-102 254.6,-97.35 190.73,-75.31 139.88,-58.27"/>
<polygon fill="#d35400" stroke="#d35400" points="140.82,-54.9 130.23,-55.05 138.6,-61.54 140.82,-54.9"/>
<text text-anchor="middle" x="313" y="-132" font-family="Helvetica,sans-Serif" font-size="10.00">«read/write»</text>
<text text-anchor="middle" x="313" y="-121" font-family="Helvetica,sans-Serif" font-size="10.00">fs::fstream</text>
</g>
<!-- Refs -->
<g id="node6" class="node">
<title>Refs</title>
<polygon fill="#edbb99" stroke="black" points="235.5,-57 164.5,-57 164.5,-16 241.5,-16 241.5,-51 235.5,-57"/>
<polyline fill="none" stroke="black" points="235.5,-57 235.5,-51 "/>
<polyline fill="none" stroke="black" points="241.5,-51 235.5,-51 "/>
<text text-anchor="middle" x="203" y="-45" font-family="Helvetica,sans-Serif" font-size="10.00">«artifact»</text>
<text text-anchor="middle" x="203" y="-34" font-family="Helvetica,sans-Serif" font-size="10.00">/refs &amp; HEAD</text>
<text text-anchor="middle" x="203" y="-23" font-family="Helvetica,sans-Serif" font-size="10.00">(Pointers)</text>
</g>
<!-- Utils&#45;&gt;Refs -->
<g id="edge9" class="edge">
<title>Utils&#45;&gt;Refs</title>
<path fill="none" stroke="#d35400" d="M378.07,-241.91C379.06,-205.3 375.42,-142.82 344,-102 321.48,-72.74 282.62,-56.32 251.39,-47.38"/>
<polygon fill="#d35400" stroke="#d35400" points="252.11,-43.95 241.55,-44.73 250.29,-50.71 252.11,-43.95"/>
<text text-anchor="middle" x="396" y="-126.5" font-family="Helvetica,sans-Serif" font-size="10.00">«update»</text>
</g>
<!-- LibZ -->
<g id="node7" class="node">
<title>LibZ</title>
<path fill="#d7dbdd" stroke="black" d="M528,-148C528,-148 446,-148 446,-148 440,-148 434,-142 434,-136 434,-136 434,-122 434,-122 434,-116 440,-110 446,-110 446,-110 528,-110 528,-110 534,-110 540,-116 540,-122 540,-122 540,-136 540,-136 540,-142 534,-148 528,-148"/>
<text text-anchor="middle" x="487" y="-132.8" font-family="Helvetica,sans-Serif" font-size="14.00">zlib</text>
<text text-anchor="middle" x="487" y="-117.8" font-family="Helvetica,sans-Serif" font-size="14.00">(Compression)</text>
</g>
<!-- Utils&#45;&gt;LibZ -->
<g id="edge4" class="edge">
<title>Utils&#45;&gt;LibZ</title>
<path fill="none" stroke="black" d="M399.27,-241.84C419.06,-216.61 447.22,-180.72 466.25,-156.45"/>
<polygon fill="black" stroke="black" points="469.15,-158.42 472.57,-148.39 463.65,-154.1 469.15,-158.42"/>
<text text-anchor="middle" x="478" y="-216" font-family="Helvetica,sans-Serif" font-size="10.00">«uses»</text>
<text text-anchor="middle" x="478" y="-205" font-family="Helvetica,sans-Serif" font-size="10.00">compress/decompress</text>
</g>
<!-- LibSSL -->
<g id="node8" class="node">
<title>LibSSL</title>
<path fill="#d7dbdd" stroke="black" d="M642,-148C642,-148 570,-148 570,-148 564,-148 558,-142 558,-136 558,-136 558,-122 558,-122 558,-116 564,-110 570,-110 570,-110 642,-110 642,-110 648,-110 654,-116 654,-122 654,-122 654,-136 654,-136 654,-142 648,-148 642,-148"/>
<text text-anchor="middle" x="606" y="-132.8" font-family="Helvetica,sans-Serif" font-size="14.00">OpenSSL</text>
<text text-anchor="middle" x="606" y="-117.8" font-family="Helvetica,sans-Serif" font-size="14.00">(SHA1 Hash)</text>
</g>
<!-- Utils&#45;&gt;LibSSL -->
<g id="edge5" class="edge">
<title>Utils&#45;&gt;LibSSL</title>
<path fill="none" stroke="black" d="M435.67,-262.19C466.42,-255.29 503.37,-243.57 532,-224 557.24,-206.74 577.92,-178.25 590.94,-157.15"/>
<polygon fill="black" stroke="black" points="594.09,-158.71 596.21,-148.33 588.08,-155.12 594.09,-158.71"/>
<text text-anchor="middle" x="589.5" y="-216" font-family="Helvetica,sans-Serif" font-size="10.00">«uses»</text>
<text text-anchor="middle" x="589.5" y="-205" font-family="Helvetica,sans-Serif" font-size="10.00">compute SHA1</text>
</g>
<!-- LibCurl -->
<g id="node9" class="node">
<title>LibCurl</title>
<path fill="#d7dbdd" stroke="black" d="M769.5,-148C769.5,-148 684.5,-148 684.5,-148 678.5,-148 672.5,-142 672.5,-136 672.5,-136 672.5,-122 672.5,-122 672.5,-116 678.5,-110 684.5,-110 684.5,-110 769.5,-110 769.5,-110 775.5,-110 781.5,-116 781.5,-122 781.5,-122 781.5,-136 781.5,-136 781.5,-142 775.5,-148 769.5,-148"/>
<text text-anchor="middle" x="727" y="-132.8" font-family="Helvetica,sans-Serif" font-size="14.00">libcurl</text>
<text text-anchor="middle" x="727" y="-117.8" font-family="Helvetica,sans-Serif" font-size="14.00">(HTTP/HTTPS)</text>
</g>
<!-- Utils&#45;&gt;LibCurl -->
<g id="edge6" class="edge">
<title>Utils&#45;&gt;LibCurl</title>
<path fill="none" stroke="black" d="M435.66,-268.66C488.22,-264.23 565.73,-252.91 627,-224 659.87,-208.49 689.06,-178.1 707.3,-156.06"/>
<polygon fill="black" stroke="black" points="710.19,-158.05 713.74,-148.07 704.74,-153.66 710.19,-158.05"/>
<text text-anchor="middle" x="691.5" y="-216" font-family="Helvetica,sans-Serif" font-size="10.00">«uses»</text>
<text text-anchor="middle" x="691.5" y="-205" font-family="Helvetica,sans-Serif" font-size="10.00">HTTP Request</text>
</g>
<!-- GitDir -->
<g id="node4" class="node">
<title>GitDir</title>
<polygon fill="#edbb99" stroke="black" points="108,-148 105,-152 84,-152 81,-148 16,-148 16,-110 108,-110 108,-148"/>
<text text-anchor="middle" x="62" y="-132.8" font-family="Helvetica,sans-Serif" font-size="14.00">.git Directory</text>
<text text-anchor="middle" x="62" y="-117.8" font-family="Helvetica,sans-Serif" font-size="14.00">(Metadata)</text>
</g>
<!-- GitDir&#45;&gt;Objects -->
<g id="edge2" class="edge">
<title>GitDir&#45;&gt;Objects</title>
<path fill="none" stroke="black" stroke-dasharray="5,2" d="M67.04,-97.62C69.26,-84.23 71.8,-68.88 73.76,-57.04"/>
<polygon fill="black" stroke="black" points="67,-97.85 69.96,-104.42 65.04,-109.69 62.07,-103.11 67,-97.85"/>
</g>
<!-- GitDir&#45;&gt;Refs -->
<g id="edge3" class="edge">
<title>GitDir&#45;&gt;Refs</title>
<path fill="none" stroke="black" stroke-dasharray="5,2" d="M100.47,-103.31C123.1,-88.78 151.31,-70.68 172.41,-57.13"/>
<polygon fill="black" stroke="black" points="100.29,-103.42 97.4,-110.03 90.19,-109.9 93.08,-103.3 100.29,-103.42"/>
</g>
<!-- GitHub -->
<g id="node10" class="node">
<title>GitHub</title>
<polygon fill="#f4d03f" stroke="black" points="794,-63 660,-63 660,-10 794,-10 794,-63"/>
<text text-anchor="middle" x="727" y="-47.8" font-family="Helvetica,sans-Serif" font-size="14.00">«external system»</text>
<text text-anchor="middle" x="727" y="-32.8" font-family="Helvetica,sans-Serif" font-size="14.00">Remote Repository</text>
<text text-anchor="middle" x="727" y="-17.8" font-family="Helvetica,sans-Serif" font-size="14.00">(GitHub/Git Server)</text>
</g>
<!-- LibCurl&#45;&gt;GitHub -->
<g id="edge11" class="edge">
<title>LibCurl&#45;&gt;GitHub</title>
<path fill="none" stroke="black" d="M727,-99.62C727,-91.36 727,-82.23 727,-73.57"/>
<polygon fill="black" stroke="black" points="723.5,-99.69 727,-109.69 730.5,-99.69 723.5,-99.69"/>
<polygon fill="black" stroke="black" points="730.5,-73.33 727,-63.33 723.5,-73.33 730.5,-73.33"/>
<text text-anchor="middle" x="770.5" y="-84" font-family="Helvetica,sans-Serif" font-size="10.00">HTTPS GET/POST</text>
</g>
</g>
</svg>
